<svg viewBox="0 0 330 200" xmlns="http://www.w3.org/2000/svg"><g><g><g><g><g><line x1="50" y1="178" x2="45" y2="178" style="visibility: inherit;" fill="rgb(0, 0, 0)" stroke="rgb(204, 204, 204)" stroke-width="1px"></line><line x1="50" y1="160.2" x2="45" y2="160.2" style="visibility: inherit;" fill="rgb(0, 0, 0)" stroke="rgb(204, 204, 204)" stroke-width="1px"></line><line x1="50" y1="142.4" x2="45" y2="142.4" style="visibility: inherit;" fill="rgb(0, 0, 0)" stroke="rgb(204, 204, 204)" stroke-width="1px"></line><line x1="50" y1="124.6" x2="45" y2="124.6" style="visibility: inherit;" fill="rgb(0, 0, 0)" stroke="rgb(204, 204, 204)" stroke-width="1px"></line><line x1="50" y1="106.8" x2="45" y2="106.8" style="visibility: inherit;" fill="rgb(0, 0, 0)" stroke="rgb(204, 204, 204)" stroke-width="1px"></line><line x1="50" y1="89" x2="45" y2="89" style="visibility: inherit;" fill="rgb(0, 0, 0)" stroke="rgb(204, 204, 204)" stroke-width="1px"></line><line x1="50" y1="71.2" x2="45" y2="71.2" style="visibility: inherit;" fill="rgb(0, 0, 0)" stroke="rgb(204, 204, 204)" stroke-width="1px"></line><line x1="50" y1="53.400000000000006" x2="45" y2="53.400000000000006" style="visibility: inherit;" fill="rgb(0, 0, 0)" stroke="rgb(204, 204, 204)" stroke-width="1px"></line><line x1="50" y1="35.60000000000002" x2="45" y2="35.60000000000002" style="visibility: inherit;" fill="rgb(0, 0, 0)" stroke="rgb(204, 204, 204)" stroke-width="1px"></line><line x1="50" y1="17.799999999999983" x2="45" y2="17.799999999999983" style="visibility: inherit;" fill="rgb(0, 0, 0)" stroke="rgb(204, 204, 204)" stroke-width="1px"></line><line x1="50" y1="0" x2="45" y2="0" style="visibility: inherit;" fill="rgb(0, 0, 0)" stroke="rgb(204, 204, 204)" stroke-width="1px"></line></g><g transform="translate(40, 0)"><text x="0" y="178" dx="0em" dy="0.3em" style="text-anchor: end; visibility: hidden; font-family: &quot;Helvetica Neue&quot;, sans-serif; font-size: 12px; font-weight: 200;" fill="rgb(50, 49, 63)" stroke="none" stroke-width="1px">-0.1</text><text x="0" y="160.2" dx="0em" dy="0.3em" style="text-anchor: end; visibility: inherit; font-family: &quot;Helvetica Neue&quot;, sans-serif; font-size: 12px; font-weight: 200;" fill="rgb(50, 49, 63)" stroke="none" stroke-width="1px">0</text><text x="0" y="142.4" dx="0em" dy="0.3em" style="text-anchor: end; visibility: hidden; font-family: &quot;Helvetica Neue&quot;, sans-serif; font-size: 12px; font-weight: 200;" fill="rgb(50, 49, 63)" stroke="none" stroke-width="1px">0.1</text><text x="0" y="124.6" dx="0em" dy="0.3em" style="text-anchor: end; visibility: inherit; font-family: &quot;Helvetica Neue&quot;, sans-serif; font-size: 12px; font-weight: 200;" fill="rgb(50, 49, 63)" stroke="none" stroke-width="1px">0.2</text><text x="0" y="106.8" dx="0em" dy="0.3em" style="text-anchor: end; visibility: hidden; font-family: &quot;Helvetica Neue&quot;, sans-serif; font-size: 12px; font-weight: 200;" fill="rgb(50, 49, 63)" stroke="none" stroke-width="1px">0.3</text><text x="0" y="89" dx="0em" dy="0.3em" style="text-anchor: end; visibility: inherit; font-family: &quot;Helvetica Neue&quot;, sans-serif; font-size: 12px; font-weight: 200;" fill="rgb(50, 49, 63)" stroke="none" stroke-width="1px">0.4</text><text x="0" y="71.2" dx="0em" dy="0.3em" style="text-anchor: end; visibility: hidden; font-family: &quot;Helvetica Neue&quot;, sans-serif; font-size: 12px; font-weight: 200;" fill="rgb(50, 49, 63)" stroke="none" stroke-width="1px">0.5</text><text x="0" y="53.400000000000006" dx="0em" dy="0.3em" style="text-anchor: end; visibility: inherit; font-family: &quot;Helvetica Neue&quot;, sans-serif; font-size: 12px; font-weight: 200;" fill="rgb(50, 49, 63)" stroke="none" stroke-width="1px">0.6</text><text x="0" y="35.60000000000002" dx="0em" dy="0.3em" style="text-anchor: end; visibility: hidden; font-family: &quot;Helvetica Neue&quot;, sans-serif; font-size: 12px; font-weight: 200;" fill="rgb(50, 49, 63)" stroke="none" stroke-width="1px">0.7</text><text x="0" y="17.799999999999983" dx="0em" dy="0.3em" style="text-anchor: end; visibility: inherit; font-family: &quot;Helvetica Neue&quot;, sans-serif; font-size: 12px; font-weight: 200;" fill="rgb(50, 49, 63)" stroke="none" stroke-width="1px">0.8</text><text x="0" y="0" dx="0em" dy="0.3em" style="text-anchor: end; visibility: hidden; font-family: &quot;Helvetica Neue&quot;, sans-serif; font-size: 12px; font-weight: 200;" fill="rgb(50, 49, 63)" stroke="none" stroke-width="1px">0.9</text></g><line x1="50" y1="0" x2="50" y2="178" fill="rgb(0, 0, 0)" stroke="rgb(204, 204, 204)" stroke-width="1px"></line></g></g><g transform="translate(50, 0)" clip-path="url(#clip_0)"><clipPath id="clip_0"><rect width="280" height="178"></rect></clipPath><g><g><g><line x1="0" y1="0" x2="0" y2="178" fill="rgb(0, 0, 0)" stroke="rgb(60, 60, 60)" stroke-width="1px" opacity="0.25"></line><line x1="25.454545454545457" y1="0" x2="25.454545454545457" y2="178" fill="rgb(0, 0, 0)" stroke="rgb(60, 60, 60)" stroke-width="1px" opacity="0.25"></line><line x1="50.909090909090914" y1="0" x2="50.909090909090914" y2="178" fill="rgb(0, 0, 0)" stroke="rgb(60, 60, 60)" stroke-width="1px" opacity="0.25"></line><line x1="76.36363636363636" y1="0" x2="76.36363636363636" y2="178" fill="rgb(0, 0, 0)" stroke="rgb(60, 60, 60)" stroke-width="1px" opacity="0.25"></line><line x1="101.81818181818183" y1="0" x2="101.81818181818183" y2="178" fill="rgb(0, 0, 0)" stroke="rgb(60, 60, 60)" stroke-width="1px" opacity="0.25"></line><line x1="127.27272727272727" y1="0" x2="127.27272727272727" y2="178" fill="rgb(0, 0, 0)" stroke="rgb(60, 60, 60)" stroke-width="1px" opacity="0.25"></line><line x1="152.72727272727272" y1="0" x2="152.72727272727272" y2="178" fill="rgb(0, 0, 0)" stroke="rgb(60, 60, 60)" stroke-width="1px" opacity="0.25"></line><line x1="178.1818181818182" y1="0" x2="178.1818181818182" y2="178" fill="rgb(0, 0, 0)" stroke="rgb(60, 60, 60)" stroke-width="1px" opacity="0.25"></line><line x1="203.63636363636365" y1="0" x2="203.63636363636365" y2="178" fill="rgb(0, 0, 0)" stroke="rgb(60, 60, 60)" stroke-width="1px" opacity="0.25"></line><line x1="229.0909090909091" y1="0" x2="229.0909090909091" y2="178" fill="rgb(0, 0, 0)" stroke="rgb(60, 60, 60)" stroke-width="1px" opacity="0.25"></line><line x1="254.54545454545453" y1="0" x2="254.54545454545453" y2="178" fill="rgb(0, 0, 0)" stroke="rgb(60, 60, 60)" stroke-width="1px" opacity="0.25"></line><line x1="280" y1="0" x2="280" y2="178" fill="rgb(0, 0, 0)" stroke="rgb(60, 60, 60)" stroke-width="1px" opacity="0.25"></line></g><g><line x1="0" y1="178" x2="280" y2="178" fill="rgb(0, 0, 0)" stroke="rgb(60, 60, 60)" stroke-width="1px" opacity="0.25"></line><line x1="0" y1="160.2" x2="280" y2="160.2" fill="rgb(0, 0, 0)" stroke="rgb(60, 60, 60)" stroke-width="1px" opacity="0.25"></line><line x1="0" y1="142.4" x2="280" y2="142.4" fill="rgb(0, 0, 0)" stroke="rgb(60, 60, 60)" stroke-width="1px" opacity="0.25"></line><line x1="0" y1="124.6" x2="280" y2="124.6" fill="rgb(0, 0, 0)" stroke="rgb(60, 60, 60)" stroke-width="1px" opacity="0.25"></line><line x1="0" y1="106.8" x2="280" y2="106.8" fill="rgb(0, 0, 0)" stroke="rgb(60, 60, 60)" stroke-width="1px" opacity="0.25"></line><line x1="0" y1="89" x2="280" y2="89" fill="rgb(0, 0, 0)" stroke="rgb(60, 60, 60)" stroke-width="1px" opacity="0.25"></line><line x1="0" y1="71.2" x2="280" y2="71.2" fill="rgb(0, 0, 0)" stroke="rgb(60, 60, 60)" stroke-width="1px" opacity="0.25"></line><line x1="0" y1="53.400000000000006" x2="280" y2="53.400000000000006" fill="rgb(0, 0, 0)" stroke="rgb(60, 60, 60)" stroke-width="1px" opacity="0.25"></line><line x1="0" y1="35.60000000000002" x2="280" y2="35.60000000000002" fill="rgb(0, 0, 0)" stroke="rgb(60, 60, 60)" stroke-width="1px" opacity="0.25"></line><line x1="0" y1="17.799999999999983" x2="280" y2="17.799999999999983" fill="rgb(0, 0, 0)" stroke="rgb(60, 60, 60)" stroke-width="1px" opacity="0.25"></line><line x1="0" y1="0" x2="280" y2="0" fill="rgb(0, 0, 0)" stroke="rgb(60, 60, 60)" stroke-width="1px" opacity="0.25"></line></g></g></g><g><g><line x1="0" y1="160.2" x2="280" y2="160.2" fill="rgb(0, 0, 0)" stroke="rgb(153, 153, 153)" stroke-width="1.5px"></line></g></g><g><g><line x1="25.454545454545457" y1="0" x2="25.454545454545457" y2="178" fill="rgb(0, 0, 0)" stroke="rgb(153, 153, 153)" stroke-width="1.5px"></line></g></g><g><g><g><g><g><path stroke="rgb(51, 187, 238)" stroke-width="2px" d="M26.090909090909093,34.891088080406206L26.727272727272727,40.7507106781006L27.363636363636363,50.83406813144684L28,67.62467248439789L28.636363636363637,86.41592885255814L29.27272727272727,99.90169812440872L29.909090909090907,108.9112181186676L30.545454545454543,114.80117894411087L31.18181818181818,117.08901764154434L31.818181818181817,118.18797604441643L32.45454545454545,119.19897533655167L33.09090909090909,118.77744690775872L33.72727272727273,119.91054708957672L34.36363636363637,120.80748493671418L35,119.95525870919228L35.63636363636363,119.83511264324189L36.27272727272727,121.09203777909279L36.90909090909091,120.3412661075592L37.54545454545455,119.92223889827729L38.18181818181818,120.03676716685295L38.81818181818182,119.78412012457848L39.45454545454545,119.83649719953537L40.09090909090909,120.67873976826668L40.72727272727273,121.67093349695206L41.36363636363637,119.84399820566178L42,121.29349071979523L42.63636363636364,120.97954390645027L43.27272727272727,119.86672402620316L43.909090909090914,121.57603038549424L44.54545454545455,121.27468515634537L45.18181818181819,119.81966502666474L45.81818181818182,119.17519651055336L46.45454545454546,120.75581870675087L47.09090909090909,119.4160005569458L47.72727272727273,121.04081184864044L48.36363636363637,120.90469564199448L49,121.06345279216767L49.63636363636364,120.90506697893143L50.27272727272727,121.20353965163231L50.909090909090914,121.82965881824494L51.54545454545455,121.03554682135582L52.18181818181819,121.12745006084442L52.81818181818181,121.39859233498574L53.45454545454545,121.79917736053467L54.090909090909086,122.249556016922L54.72727272727273,122.68417937755585L55.36363636363636,121.98755128383637L56,122.30105779767037L56.63636363636363,123.06625856161118L57.27272727272727,124.09271607995034L57.90909090909091,123.87070433497429L58.54545454545454,125.15329946279526L59.18181818181818,125.15783773064614L59.81818181818181,125.35078175067902L60.45454545454545,124.78183255791664L61.090909090909086,124.41357771754265L61.72727272727273,126.35624016523361L62.36363636363636,126.45837108492852L63,126.8483226120472L63.63636363636363,126.42052654623986L64.27272727272728,126.6375464618206L64.9090909090909,127.51911626458168L65.54545454545455,127.33393318653107L66.18181818181819,128.07966793775557L66.81818181818183,128.652558606863L67.45454545454545,127.79849956631661L68.0909090909091,128.24287582635878L68.72727272727273,127.35343633294106L69.36363636363637,128.4617816030979L70,129.1676798582077L70.63636363636363,128.3995747089386L71.27272727272727,128.19521738290786L71.9090909090909,127.9056223154068L72.54545454545455,129.18529449105262L73.18181818181817,129.14848173856734L73.81818181818181,128.67768220305442L74.45454545454545,129.01495162844657L75.0909090909091,129.53172532916068L75.72727272727272,129.1207481741905L76.36363636363636,130.3865243911743L77,130.28107796311377L77.63636363636364,130.09993184804915L78.27272727272727,128.42350206971167L78.9090909090909,129.74437938332557L79.54545454545455,130.1178912937641L80.18181818181819,129.66557638049125L80.81818181818181,130.32122744321822L81.45454545454545,130.54306412935256L82.09090909090908,129.82790101766585L82.72727272727273,129.64677612185477L83.36363636363636,129.58574424386023L84,130.5869296312332L84.63636363636363,128.3787241399288L85.27272727272728,129.86484373807906L85.9090909090909,130.33976776599883L86.54545454545455,130.40224520564078L87.18181818181817,130.4788918018341L87.81818181818183,130.34789474010466L88.45454545454545,130.5404647707939L89.0909090909091,132.07971737980841L89.72727272727272,131.6400570988655L90.36363636363637,131.53391839265822L91,130.27340455055236L91.63636363636364,131.19258017539977L92.27272727272727,133.31440473794936L92.90909090909092,133.2509034693241L93.54545454545455,131.71600876450537L94.18181818181819,132.1518124461174L94.81818181818181,132.12178720235823L95.45454545454545,131.18801538348197L96.0909090909091,130.73275629878043L96.72727272727273,132.93964354395865L97.36363636363636,132.2854009091854L98,132.83474616408347L98.63636363636364,132.41023112535476L99.27272727272728,131.4929838001728L99.9090909090909,131.69181616306304L100.54545454545455,130.93919841647147L101.18181818181819,133.15127642154692L101.81818181818183,132.67455936670302L102.45454545454545,132.8374569237232L103.0909090909091,132.3049650609493L103.72727272727273,131.9711172401905L104.36363636363637,133.06273112893103L105,132.36932305693625L105.63636363636363,133.22745088934897L106.27272727272727,131.89036471843718L106.9090909090909,132.8749752163887L107.54545454545455,132.57146031856536L108.18181818181817,131.66288901567458L108.81818181818181,131.6466748535633L109.45454545454545,131.86672912240027L110.0909090909091,131.99191476106643L110.72727272727272,132.8459923684597L111.36363636363636,132.94456110596656L112,131.87332035303115L112.63636363636364,131.3562044918537L113.27272727272727,132.133123588562L113.9090909090909,133.5458696603775L114.54545454545455,132.9913999557495L115.18181818181819,131.8637080311775L115.81818181818181,133.67964909672736L116.45454545454545,133.21429229974746L117.09090909090908,132.52930561900138L117.72727272727273,134.1696255326271L118.36363636363636,133.93447376489638L119,131.86421729326247L119.63636363636363,132.67055688500403L120.27272727272728,132.84658120274543L120.9090909090909,133.33373813033103L121.54545454545455,132.4098306119442L122.18181818181817,134.2138570666313L122.81818181818183,133.00048444867133L123.45454545454545,132.5017338514328L124.0909090909091,132.55009518265723L124.72727272727272,133.6666151702404L125.36363636363637,133.1712066054344L126,135.06956325173377L126.63636363636364,132.83025829195975L127.27272727272727,132.88294835090636L127.90909090909092,134.77520711421965L128.54545454545456,133.57246003746985L129.1818181818182,134.85207651257514L129.8181818181818,133.24141050577163L130.45454545454544,134.64232153892516L131.0909090909091,133.59805576205252L131.72727272727272,134.3382151544094L132.36363636363637,134.3339368224144L133,133.8545991897583L133.63636363636365,134.4905959188938L134.27272727272728,133.5487369120121L134.9090909090909,134.714745503664L135.54545454545453,134.08625508546828L136.1818181818182,133.64026881456374L136.8181818181818,134.11637581586837L137.45454545454547,133.17758829593657L138.0909090909091,134.4319193780422L138.72727272727275,132.91996268630027L139.36363636363637,134.49414483904837L140,133.88709117174147L140.63636363636365,135.3493338048458L141.27272727272725,133.94604621529578L141.9090909090909,134.8220486164093L142.54545454545453,135.61837006807326L143.1818181818182,133.8055774092674L143.8181818181818,135.19066683650016L144.45454545454544,134.46891514658927L145.0909090909091,134.55306540131568L145.72727272727275,134.86263043880462L146.36363636363635,134.55353487730025L147,135.51975889205931L147.63636363636363,133.292023730278L148.27272727272728,133.76390014290808L148.9090909090909,134.9749943435192L149.54545454545453,134.51251806020736L150.1818181818182,134.448939871788L150.81818181818184,134.95409603118895L151.45454545454544,134.45794214010238L152.0909090909091,135.2525103509426L152.72727272727272,135.8060225367546L153.36363636363637,135.2088092982769L154,135.45853338837622L154.63636363636363,135.61745498776435L155.27272727272728,134.20415191054343L155.9090909090909,133.69900370836257L156.54545454545453,134.22498391270636L157.1818181818182,134.54991964697837L157.8181818181818,135.72372100949286L158.45454545454547,135.27641384005545L159.0909090909091,136.34873147010802L159.72727272727272,135.42627747058867L160.36363636363637,136.03784022927283L161,134.9166042625904L161.63636363636363,135.77251733541488L162.27272727272728,136.15139771699904L162.9090909090909,134.91828854084014L163.54545454545456,136.27921189069747L164.18181818181816,134.51619960069655L164.8181818181818,135.32299805879592L165.45454545454547,135.48090113401412L166.0909090909091,137.07192076444625L166.72727272727272,134.14848850369452L167.36363636363637,135.4002600133419L168,135.5303817808628L168.63636363636365,134.85643441677092L169.27272727272725,134.51612533330916L169.9090909090909,135.73561970591544L170.54545454545456,136.203713786602L171.1818181818182,134.96254394650458L171.8181818181818,137.20277459621428L172.45454545454547,135.4958023548126L173.0909090909091,135.23008425235747L173.72727272727275,136.5653906583786L174.36363636363635,135.0971588909626L175,134.91888002753257L175.63636363636365,135.04611862897872L176.27272727272725,134.17898322343825L176.9090909090909,136.19546214938163L177.54545454545453,136.10355095267295L178.1818181818182,136.47840763330458L178.8181818181818,135.6725401699543L179.45454545454544,136.2851453244686L180.0909090909091,134.55112383961676L180.72727272727275,136.01670054793357L181.36363636363635,136.6304701089859L182,134.78366563916205L182.63636363636363,136.78202332258223L183.27272727272728,135.62328497767447L183.9090909090909,136.83304501771926L184.54545454545453,135.81644649505614L185.1818181818182,136.51160515546798L185.81818181818184,135.89705048203467L186.45454545454544,135.71646932959555L187.0909090909091,136.1259293079376L187.72727272727272,134.53832332491874L188.36363636363637,136.1958600103855L189,136.36304916143416L189.63636363636363,137.37925778031348L190.27272727272728,136.08235822319983L190.9090909090909,136.55057431459426L191.54545454545453,137.3034811735153L192.1818181818182,137.36254231333731L192.8181818181818,136.3676723062992L193.45454545454547,136.0113479912281L194.0909090909091,137.24595577716826L194.72727272727272,135.57192112207412L195.36363636363637,136.83835513591765L196,136.11660344600676L196.63636363636363,137.359155189991L197.27272727272728,137.28121421933173L197.9090909090909,134.82401935458182L198.54545454545456,137.16946036815642L199.18181818181816,136.31779645085334L199.8181818181818,136.2391101539135L200.45454545454547,136.83294422626494L201.0909090909091,135.40159152150153L201.72727272727272,137.03960118889808L202.36363636363637,137.41473371982573L203,137.19254956841468L203.63636363636365,136.37355534434317L204.27272727272725,135.71350393891333L204.9090909090909,138.02016146183013L205.54545454545456,137.32805837392806L206.1818181818182,136.86901165246962L206.8181818181818,136.12697170376777L207.45454545454547,136.45278803706168L208.0909090909091,136.03529657125472L208.72727272727275,136.97307087182998L209.36363636363635,137.246648055315L210,137.04767776727675L210.63636363636365,135.89057595729827L211.27272727272725,135.9959189414978L211.9090909090909,136.94012267589568L212.54545454545453,137.48571212291716L213.1818181818182,137.6614765048027L213.8181818181818,136.267734926939L214.45454545454544,138.0826707303524L215.0909090909091,136.45956228375434L215.72727272727275,137.5104033768177L216.36363636363635,137.1460051357746L217,137.8892015337944L217.63636363636363,135.70673234462737L218.27272727272728,136.23375229239463L218.9090909090909,136.9343775629997L219.54545454545453,136.51468725204467L220.1818181818182,136.9501275539398L220.81818181818184,138.33687738776206L221.45454545454544,138.38250806629657L222.0909090909091,137.0013402223587L222.72727272727272,137.17235944867133L223.36363636363637,136.62407250404357L224,138.5567274212837L224.63636363636363,138.25315682291983L225.27272727272728,137.1966104030609L225.9090909090909,137.44088644981383L226.54545454545453,138.95019736588L227.1818181818182,136.08259693980216L227.8181818181818,137.1882208406925L228.45454545454547,137.16724560856818L229.0909090909091,137.8498132944107L229.72727272727272,136.82607449293135L230.36363636363637,136.50706158280371L231,137.62827367782592L231.63636363636363,139.26430730223655L232.27272727272728,137.76019642949103L232.9090909090909,137.47187451720237L233.54545454545456,136.59326214790343L234.18181818181816,138.2798851251602L234.8181818181818,137.8895569562912L235.45454545454547,136.34816120266913L236.0909090909091,136.8535932123661L236.72727272727272,136.3532644331455L237.36363636363637,137.81630544066428L238,136.5321215212345L238.63636363636365,137.42230368852614L239.27272727272725,138.31632919311522L239.9090909090909,137.1671368598938L240.54545454545456,137.65587727427481L241.1818181818182,137.04496170282363L241.8181818181818,139.0860337436199L242.45454545454547,138.48379286825656L243.0909090909091,136.9910701036453L243.72727272727275,137.17603037953376L244.36363636363635,138.27066005468367L245,139.19764436483382L245.63636363636365,137.56495277285575L246.27272727272725,136.9495970726013L246.9090909090909,136.80897177457808L247.54545454545453,137.34604699611663L248.1818181818182,138.41876513957976L248.8181818181818,139.00243518948554L249.45454545454544,137.09049822092055L250.0909090909091,138.6769504070282L250.72727272727275,138.30523682832717L251.36363636363635,138.17625824809073L252,138.18119570314883L252.63636363636363,138.86792501509188L253.27272727272728,136.70898399949073L253.9090909090909,137.67111269831656L254.54545454545453,138.49548467695712L255.1818181818182,138.0215659111738L255.81818181818184,138.21711989939212" style="fill: none;" fill="none"></path></g><g><path stroke="rgb(204, 51, 17)" stroke-width="2px" d="M26.090909090909093,36.83705277442934L26.727272727272727,53.01358253955841L27.363636363636363,84.92965276241303L28,100.49716342687607L28.636363636363637,110.7634891986847L29.27272727272727,115.95920113921166L29.909090909090907,118.8055491566658L30.545454545454543,119.94280831217766L31.18181818181818,119.37611101269722L31.818181818181817,120.45882077217102L32.45454545454545,121.16712476015091L33.09090909090909,120.07950274348259L33.72727272727273,120.2376843214035L34.36363636363637,120.90846471190453L35,121.20888425111771L35.63636363636363,121.8588671207428L36.27272727272727,121.7977185368538L36.90909090909091,121.94804103374481L37.54545454545455,121.94300941824913L38.18181818181818,122.49370740056038L38.81818181818182,123.60149831771851L39.45454545454545,124.62259532213211L40.09090909090909,123.855309766531L40.72727272727273,124.86258507966996L41.36363636363637,126.2996935069561L42,125.7538282096386L42.63636363636364,126.14902354478836L43.27272727272727,125.79286633133889L43.909090909090914,126.42861108183861L44.54545454545455,127.52830154895783L45.18181818181819,128.66358731389045L45.81818181818182,127.72343115210533L46.45454545454546,128.31828905344008L47.09090909090909,128.6651204049587L47.72727272727273,128.41752884984015L48.36363636363637,127.82635779380799L49,128.82153282761573L49.63636363636364,129.2564293861389L50.27272727272727,129.50020147562026L50.909090909090914,130.16737459301947L51.54545454545455,129.56857521533965L52.18181818181819,130.86886454820632L52.81818181818181,129.9439623773098L53.45454545454545,130.50701792240142L54.090909090909086,131.16636644005774L54.72727272727273,131.48968420624732L55.36363636363636,130.55112744569777L56,129.75847427248954L56.63636363636363,130.39372567534446L57.27272727272727,130.2766484439373L57.90909090909091,130.48438493609427L58.54545454545454,130.785032582283L59.18181818181818,130.88257218599318L59.81818181818181,131.2308225750923L60.45454545454545,130.89973590970038L61.090909090909086,130.7324831008911L61.72727272727273,130.83541769981383L62.36363636363636,131.41592873334884L63,132.02997414469718L63.63636363636363,131.76124290823935L64.27272727272728,132.80142397880553L64.9090909090909,132.23222811222075L65.54545454545455,132.42275313735007L66.18181818181819,132.92025179862975L66.81818181818183,133.52361331582068L67.45454545454545,132.57272551655768L68.0909090909091,133.38104115128516L68.72727272727273,132.8188476383686L69.36363636363637,132.70767996907233L70,134.128964138031L70.63636363636363,132.98738951683043L71.27272727272727,133.62296716570853L71.9090909090909,132.38736737966536L72.54545454545455,133.60598645806311L73.18181818181817,133.7763903260231L73.81818181818181,133.17734692692756L74.45454545454545,133.78065804839133L75.0909090909091,134.07889465689658L75.72727272727272,133.69536195397376L76.36363636363636,134.1812298119068L77,134.0129266500473L77.63636363636364,134.01525015830993L78.27272727272727,133.63802753090857L78.9090909090909,132.6429665505886L79.54545454545455,134.24826408624648L80.18181818181819,133.63251317739486L80.81818181818181,134.19233543872832L81.45454545454545,133.53582234382628L82.09090909090908,133.38161407113074L82.72727272727273,134.49641264677047L83.36363636363636,135.07725523114203L84,135.06547589302062L84.63636363636363,135.6499920606613L85.27272727272728,135.71542162895201L85.9090909090909,135.715111297369L86.54545454545455,136.24322138428687L87.18181818181817,135.87733514308928L87.81818181818183,135.2606532394886L88.45454545454545,136.0263818323612L89.0909090909091,136.6749191403389L89.72727272727272,135.5364664018154L90.36363636363637,136.60047138929366L91,135.43404636979102L91.63636363636364,135.65658859610556L92.27272727272727,134.73910255432128L92.90909090909092,135.21654371619223L93.54545454545455,135.80132777690886L94.18181818181819,136.40428878068923L94.81818181818181,135.70156015157698L95.45454545454545,135.6357698559761L96.0909090909091,135.292996686697L96.72727272727273,136.26107473373412L97.36363636363636,135.26105905771254L98,135.4875586748123L98.63636363636364,136.08484087586402L99.27272727272728,135.34407673478125L99.9090909090909,135.02268196344374L100.54545454545455,135.4165404856205L101.18181818181819,136.31312291026114L101.81818181818183,135.27226282358168L102.45454545454545,137.04254005551337L103.0909090909091,137.97737283706664L103.72727272727273,137.49523161053656L104.36363636363637,137.57411683797835L105,137.242300760746L105.63636363636363,138.46147949695586L106.27272727272727,136.77861232757567L106.9090909090909,137.0737403154373L107.54545454545455,137.60719765424727L108.18181818181817,138.60028922259806L108.81818181818181,137.11285800933837L109.45454545454545,136.8561766564846L110.0909090909091,137.70654885172843L110.72727272727272,136.9670446038246L111.36363636363636,136.93871159553527L112,137.79585273265837L112.63636363636364,136.88150448799132L113.27272727272727,137.48461137413977L113.9090909090909,138.50625477433204L114.54545454545455,138.19298299849032L115.18181818181819,137.04374424815177L115.81818181818181,137.49045993089675L116.45454545454545,137.26457301974295L117.09090909090908,138.62444601655005L117.72727272727273,138.4617102563381L118.36363636363636,138.13399479985236L119,137.02396790385245L119.63636363636363,138.2345382541418L120.27272727272728,137.53469676971434L120.9090909090909,138.39243204593657L121.54545454545455,137.35113961696624L122.18181818181817,139.25689913034438L122.81818181818183,139.0876132518053L123.45454545454545,139.5593610227108L124.0909090909091,139.18550827801226L124.72727272727272,138.97381969988345L125.36363636363637,139.07595327198504L126,139.40503471791743L126.63636363636364,140.554959115386L127.27272727272727,139.50703434348105L127.90909090909092,138.83647012412547L128.54545454545456,139.47094039320945L129.1818181818182,139.6770363718271L129.8181818181818,139.43788344860076L130.45454545454544,139.44605153501033L131.0909090909091,138.9585352063179L131.72727272727272,139.472057056427L132.36363636363637,139.58992205262183L133,139.5973076790571L133.63636363636365,139.29359517693518L134.27272727272728,138.514566090703L134.9090909090909,139.10076918900012L135.54545454545453,138.11836681962012L136.1818181818182,139.42563993930816L136.8181818181818,139.6438693523407L137.45454545454547,139.45878043472766L138.0909090909091,139.50629697442054L138.72727272727275,139.72356621623038L139.36363636363637,139.59361818134784L140,139.1145378321409L140.63636363636365,139.25241125822066L141.27272727272725,140.4434519380331L141.9090909090909,140.3902831196785L142.54545454545453,140.3053676456213L143.1818181818182,140.20766624510287L143.8181818181818,140.68190595209597L144.45454545454544,139.92414784133433L145.0909090909091,140.4211558073759L145.72727272727275,140.5877614289522L146.36363636363635,140.45208154320716L147,140.4632508277893L147.63636363636363,139.39672074913977L148.27272727272728,139.53035960793494L148.9090909090909,140.66257653832434L149.54545454545453,140.66260306239127L150.1818181818182,141.47324353158473L150.81818181818184,141.0038033545017L151.45454545454544,140.15384095609187L152.0909090909091,140.80137963294982L152.72727272727272,140.51883466243743L153.36363636363637,140.8014790982008L154,141.018581238389L154.63636363636363,140.73196084499358L155.27272727272728,141.4838200032711L155.9090909090909,141.6732668250799L156.54545454545453,141.0411213904619L157.1818181818182,140.02430271804332L157.8181818181818,140.56167898774146L158.45454545454547,141.12344281077384L159.0909090909091,140.95071808695792L159.72727272727272,140.77145650684832" style="fill: none;" fill="none"></path></g></g></g></g></g></g><g transform="translate(50, 178)" clip-path="url(#clip_1)"><clipPath id="clip_1"><rect width="280" height="22"></rect></clipPath><g><g><line x1="0" y1="0" x2="0" y2="5" style="visibility: inherit;" fill="rgb(0, 0, 0)" stroke="rgb(204, 204, 204)" stroke-width="1px"></line><line x1="25.454545454545457" y1="0" x2="25.454545454545457" y2="5" style="visibility: inherit;" fill="rgb(0, 0, 0)" stroke="rgb(204, 204, 204)" stroke-width="1px"></line><line x1="50.909090909090914" y1="0" x2="50.909090909090914" y2="5" style="visibility: inherit;" fill="rgb(0, 0, 0)" stroke="rgb(204, 204, 204)" stroke-width="1px"></line><line x1="76.36363636363636" y1="0" x2="76.36363636363636" y2="5" style="visibility: inherit;" fill="rgb(0, 0, 0)" stroke="rgb(204, 204, 204)" stroke-width="1px"></line><line x1="101.81818181818183" y1="0" x2="101.81818181818183" y2="5" style="visibility: inherit;" fill="rgb(0, 0, 0)" stroke="rgb(204, 204, 204)" stroke-width="1px"></line><line x1="127.27272727272727" y1="0" x2="127.27272727272727" y2="5" style="visibility: inherit;" fill="rgb(0, 0, 0)" stroke="rgb(204, 204, 204)" stroke-width="1px"></line><line x1="152.72727272727272" y1="0" x2="152.72727272727272" y2="5" style="visibility: inherit;" fill="rgb(0, 0, 0)" stroke="rgb(204, 204, 204)" stroke-width="1px"></line><line x1="178.1818181818182" y1="0" x2="178.1818181818182" y2="5" style="visibility: inherit;" fill="rgb(0, 0, 0)" stroke="rgb(204, 204, 204)" stroke-width="1px"></line><line x1="203.63636363636365" y1="0" x2="203.63636363636365" y2="5" style="visibility: inherit;" fill="rgb(0, 0, 0)" stroke="rgb(204, 204, 204)" stroke-width="1px"></line><line x1="229.0909090909091" y1="0" x2="229.0909090909091" y2="5" style="visibility: inherit;" fill="rgb(0, 0, 0)" stroke="rgb(204, 204, 204)" stroke-width="1px"></line><line x1="254.54545454545453" y1="0" x2="254.54545454545453" y2="5" style="visibility: inherit;" fill="rgb(0, 0, 0)" stroke="rgb(204, 204, 204)" stroke-width="1px"></line><line x1="280" y1="0" x2="280" y2="5" style="visibility: inherit;" fill="rgb(0, 0, 0)" stroke="rgb(204, 204, 204)" stroke-width="1px"></line></g><g transform="translate(0, 8)"><text x="0" y="0" dx="0em" dy="0.95em" style="text-anchor: middle; visibility: hidden; font-family: &quot;Helvetica Neue&quot;, sans-serif; font-size: 12px; font-weight: 200;" fill="rgb(50, 49, 63)" stroke="none" stroke-width="1px">-2k</text><text x="25.454545454545457" y="0" dx="0em" dy="0.95em" style="text-anchor: middle; visibility: inherit; font-family: &quot;Helvetica Neue&quot;, sans-serif; font-size: 12px; font-weight: 200;" fill="rgb(50, 49, 63)" stroke="none" stroke-width="1px">0</text><text x="50.909090909090914" y="0" dx="0em" dy="0.95em" style="text-anchor: middle; visibility: inherit; font-family: &quot;Helvetica Neue&quot;, sans-serif; font-size: 12px; font-weight: 200;" fill="rgb(50, 49, 63)" stroke="none" stroke-width="1px">2k</text><text x="76.36363636363636" y="0" dx="0em" dy="0.95em" style="text-anchor: middle; visibility: inherit; font-family: &quot;Helvetica Neue&quot;, sans-serif; font-size: 12px; font-weight: 200;" fill="rgb(50, 49, 63)" stroke="none" stroke-width="1px">4k</text><text x="101.81818181818183" y="0" dx="0em" dy="0.95em" style="text-anchor: middle; visibility: inherit; font-family: &quot;Helvetica Neue&quot;, sans-serif; font-size: 12px; font-weight: 200;" fill="rgb(50, 49, 63)" stroke="none" stroke-width="1px">6k</text><text x="127.27272727272727" y="0" dx="0em" dy="0.95em" style="text-anchor: middle; visibility: inherit; font-family: &quot;Helvetica Neue&quot;, sans-serif; font-size: 12px; font-weight: 200;" fill="rgb(50, 49, 63)" stroke="none" stroke-width="1px">8k</text><text x="152.72727272727272" y="0" dx="0em" dy="0.95em" style="text-anchor: middle; visibility: inherit; font-family: &quot;Helvetica Neue&quot;, sans-serif; font-size: 12px; font-weight: 200;" fill="rgb(50, 49, 63)" stroke="none" stroke-width="1px">10k</text><text x="178.1818181818182" y="0" dx="0em" dy="0.95em" style="text-anchor: middle; visibility: inherit; font-family: &quot;Helvetica Neue&quot;, sans-serif; font-size: 12px; font-weight: 200;" fill="rgb(50, 49, 63)" stroke="none" stroke-width="1px">12k</text><text x="203.63636363636365" y="0" dx="0em" dy="0.95em" style="text-anchor: middle; visibility: inherit; font-family: &quot;Helvetica Neue&quot;, sans-serif; font-size: 12px; font-weight: 200;" fill="rgb(50, 49, 63)" stroke="none" stroke-width="1px">14k</text><text x="229.0909090909091" y="0" dx="0em" dy="0.95em" style="text-anchor: middle; visibility: inherit; font-family: &quot;Helvetica Neue&quot;, sans-serif; font-size: 12px; font-weight: 200;" fill="rgb(50, 49, 63)" stroke="none" stroke-width="1px">16k</text><text x="254.54545454545453" y="0" dx="0em" dy="0.95em" style="text-anchor: middle; visibility: inherit; font-family: &quot;Helvetica Neue&quot;, sans-serif; font-size: 12px; font-weight: 200;" fill="rgb(50, 49, 63)" stroke="none" stroke-width="1px">18k</text><text x="280" y="0" dx="0em" dy="0.95em" style="text-anchor: middle; visibility: hidden; font-family: &quot;Helvetica Neue&quot;, sans-serif; font-size: 12px; font-weight: 200;" fill="rgb(50, 49, 63)" stroke="none" stroke-width="1px">20k</text></g><line x1="0" y1="0" x2="280" y2="0" fill="rgb(0, 0, 0)" stroke="rgb(204, 204, 204)" stroke-width="1px"></line></g></g></g></g></svg>