<svg viewBox="0 0 330 200" xmlns="http://www.w3.org/2000/svg"><g><g><g><g><g><line x1="70" y1="178" x2="65" y2="178" style="visibility: inherit;" fill="rgb(0, 0, 0)" stroke="rgb(204, 204, 204)" stroke-width="1px"></line><line x1="70" y1="158.22222222222223" x2="65" y2="158.22222222222223" style="visibility: inherit;" fill="rgb(0, 0, 0)" stroke="rgb(204, 204, 204)" stroke-width="1px"></line><line x1="70" y1="138.44444444444446" x2="65" y2="138.44444444444446" style="visibility: inherit;" fill="rgb(0, 0, 0)" stroke="rgb(204, 204, 204)" stroke-width="1px"></line><line x1="70" y1="118.66666666666666" x2="65" y2="118.66666666666666" style="visibility: inherit;" fill="rgb(0, 0, 0)" stroke="rgb(204, 204, 204)" stroke-width="1px"></line><line x1="70" y1="98.88888888888889" x2="65" y2="98.88888888888889" style="visibility: inherit;" fill="rgb(0, 0, 0)" stroke="rgb(204, 204, 204)" stroke-width="1px"></line><line x1="70" y1="79.1111111111111" x2="65" y2="79.1111111111111" style="visibility: inherit;" fill="rgb(0, 0, 0)" stroke="rgb(204, 204, 204)" stroke-width="1px"></line><line x1="70" y1="59.33333333333334" x2="65" y2="59.33333333333334" style="visibility: inherit;" fill="rgb(0, 0, 0)" stroke="rgb(204, 204, 204)" stroke-width="1px"></line><line x1="70" y1="39.55555555555554" x2="65" y2="39.55555555555554" style="visibility: inherit;" fill="rgb(0, 0, 0)" stroke="rgb(204, 204, 204)" stroke-width="1px"></line><line x1="70" y1="19.7777777777778" x2="65" y2="19.7777777777778" style="visibility: inherit;" fill="rgb(0, 0, 0)" stroke="rgb(204, 204, 204)" stroke-width="1px"></line><line x1="70" y1="0" x2="65" y2="0" style="visibility: inherit;" fill="rgb(0, 0, 0)" stroke="rgb(204, 204, 204)" stroke-width="1px"></line></g><g transform="translate(60, 0)"><text x="0" y="178" dx="0em" dy="0.3em" style="text-anchor: end; visibility: hidden; font-family: &quot;Helvetica Neue&quot;, sans-serif; font-size: 12px; font-weight: 200;" fill="rgb(50, 49, 63)" stroke="none" stroke-width="1px">-5e-6</text><text x="0" y="158.22222222222223" dx="0em" dy="0.3em" style="text-anchor: end; visibility: inherit; font-family: &quot;Helvetica Neue&quot;, sans-serif; font-size: 12px; font-weight: 200;" fill="rgb(50, 49, 63)" stroke="none" stroke-width="1px">0</text><text x="0" y="138.44444444444446" dx="0em" dy="0.3em" style="text-anchor: end; visibility: hidden; font-family: &quot;Helvetica Neue&quot;, sans-serif; font-size: 12px; font-weight: 200;" fill="rgb(50, 49, 63)" stroke="none" stroke-width="1px">5e-6</text><text x="0" y="118.66666666666666" dx="0em" dy="0.3em" style="text-anchor: end; visibility: inherit; font-family: &quot;Helvetica Neue&quot;, sans-serif; font-size: 12px; font-weight: 200;" fill="rgb(50, 49, 63)" stroke="none" stroke-width="1px">1e-5</text><text x="0" y="98.88888888888889" dx="0em" dy="0.3em" style="text-anchor: end; visibility: hidden; font-family: &quot;Helvetica Neue&quot;, sans-serif; font-size: 12px; font-weight: 200;" fill="rgb(50, 49, 63)" stroke="none" stroke-width="1px">1.5e-5</text><text x="0" y="79.1111111111111" dx="0em" dy="0.3em" style="text-anchor: end; visibility: inherit; font-family: &quot;Helvetica Neue&quot;, sans-serif; font-size: 12px; font-weight: 200;" fill="rgb(50, 49, 63)" stroke="none" stroke-width="1px">2e-5</text><text x="0" y="59.33333333333334" dx="0em" dy="0.3em" style="text-anchor: end; visibility: hidden; font-family: &quot;Helvetica Neue&quot;, sans-serif; font-size: 12px; font-weight: 200;" fill="rgb(50, 49, 63)" stroke="none" stroke-width="1px">2.5e-5</text><text x="0" y="39.55555555555554" dx="0em" dy="0.3em" style="text-anchor: end; visibility: inherit; font-family: &quot;Helvetica Neue&quot;, sans-serif; font-size: 12px; font-weight: 200;" fill="rgb(50, 49, 63)" stroke="none" stroke-width="1px">3e-5</text><text x="0" y="19.7777777777778" dx="0em" dy="0.3em" style="text-anchor: end; visibility: hidden; font-family: &quot;Helvetica Neue&quot;, sans-serif; font-size: 12px; font-weight: 200;" fill="rgb(50, 49, 63)" stroke="none" stroke-width="1px">3.5e-5</text><text x="0" y="0" dx="0em" dy="0.3em" style="text-anchor: end; visibility: hidden; font-family: &quot;Helvetica Neue&quot;, sans-serif; font-size: 12px; font-weight: 200;" fill="rgb(50, 49, 63)" stroke="none" stroke-width="1px">4e-5</text></g><line x1="70" y1="0" x2="70" y2="178" fill="rgb(0, 0, 0)" stroke="rgb(204, 204, 204)" stroke-width="1px"></line></g></g><g transform="translate(70, 0)" clip-path="url(#clip_0)"><clipPath id="clip_0"><rect width="260" height="178"></rect></clipPath><g><g><g><line x1="0" y1="0" x2="0" y2="178" fill="rgb(0, 0, 0)" stroke="rgb(60, 60, 60)" stroke-width="1px" opacity="0.25"></line><line x1="23.636363636363637" y1="0" x2="23.636363636363637" y2="178" fill="rgb(0, 0, 0)" stroke="rgb(60, 60, 60)" stroke-width="1px" opacity="0.25"></line><line x1="47.27272727272727" y1="0" x2="47.27272727272727" y2="178" fill="rgb(0, 0, 0)" stroke="rgb(60, 60, 60)" stroke-width="1px" opacity="0.25"></line><line x1="70.9090909090909" y1="0" x2="70.9090909090909" y2="178" fill="rgb(0, 0, 0)" stroke="rgb(60, 60, 60)" stroke-width="1px" opacity="0.25"></line><line x1="94.54545454545455" y1="0" x2="94.54545454545455" y2="178" fill="rgb(0, 0, 0)" stroke="rgb(60, 60, 60)" stroke-width="1px" opacity="0.25"></line><line x1="118.18181818181817" y1="0" x2="118.18181818181817" y2="178" fill="rgb(0, 0, 0)" stroke="rgb(60, 60, 60)" stroke-width="1px" opacity="0.25"></line><line x1="141.8181818181818" y1="0" x2="141.8181818181818" y2="178" fill="rgb(0, 0, 0)" stroke="rgb(60, 60, 60)" stroke-width="1px" opacity="0.25"></line><line x1="165.45454545454544" y1="0" x2="165.45454545454544" y2="178" fill="rgb(0, 0, 0)" stroke="rgb(60, 60, 60)" stroke-width="1px" opacity="0.25"></line><line x1="189.0909090909091" y1="0" x2="189.0909090909091" y2="178" fill="rgb(0, 0, 0)" stroke="rgb(60, 60, 60)" stroke-width="1px" opacity="0.25"></line><line x1="212.72727272727275" y1="0" x2="212.72727272727275" y2="178" fill="rgb(0, 0, 0)" stroke="rgb(60, 60, 60)" stroke-width="1px" opacity="0.25"></line><line x1="236.36363636363635" y1="0" x2="236.36363636363635" y2="178" fill="rgb(0, 0, 0)" stroke="rgb(60, 60, 60)" stroke-width="1px" opacity="0.25"></line><line x1="260" y1="0" x2="260" y2="178" fill="rgb(0, 0, 0)" stroke="rgb(60, 60, 60)" stroke-width="1px" opacity="0.25"></line></g><g><line x1="0" y1="178" x2="260" y2="178" fill="rgb(0, 0, 0)" stroke="rgb(60, 60, 60)" stroke-width="1px" opacity="0.25"></line><line x1="0" y1="158.22222222222223" x2="260" y2="158.22222222222223" fill="rgb(0, 0, 0)" stroke="rgb(60, 60, 60)" stroke-width="1px" opacity="0.25"></line><line x1="0" y1="138.44444444444446" x2="260" y2="138.44444444444446" fill="rgb(0, 0, 0)" stroke="rgb(60, 60, 60)" stroke-width="1px" opacity="0.25"></line><line x1="0" y1="118.66666666666666" x2="260" y2="118.66666666666666" fill="rgb(0, 0, 0)" stroke="rgb(60, 60, 60)" stroke-width="1px" opacity="0.25"></line><line x1="0" y1="98.88888888888889" x2="260" y2="98.88888888888889" fill="rgb(0, 0, 0)" stroke="rgb(60, 60, 60)" stroke-width="1px" opacity="0.25"></line><line x1="0" y1="79.1111111111111" x2="260" y2="79.1111111111111" fill="rgb(0, 0, 0)" stroke="rgb(60, 60, 60)" stroke-width="1px" opacity="0.25"></line><line x1="0" y1="59.33333333333334" x2="260" y2="59.33333333333334" fill="rgb(0, 0, 0)" stroke="rgb(60, 60, 60)" stroke-width="1px" opacity="0.25"></line><line x1="0" y1="39.55555555555554" x2="260" y2="39.55555555555554" fill="rgb(0, 0, 0)" stroke="rgb(60, 60, 60)" stroke-width="1px" opacity="0.25"></line><line x1="0" y1="19.7777777777778" x2="260" y2="19.7777777777778" fill="rgb(0, 0, 0)" stroke="rgb(60, 60, 60)" stroke-width="1px" opacity="0.25"></line><line x1="0" y1="0" x2="260" y2="0" fill="rgb(0, 0, 0)" stroke="rgb(60, 60, 60)" stroke-width="1px" opacity="0.25"></line></g></g></g><g><g><line x1="0" y1="158.22222222222223" x2="260" y2="158.22222222222223" fill="rgb(0, 0, 0)" stroke="rgb(153, 153, 153)" stroke-width="1.5px"></line></g></g><g><g><line x1="23.636363636363637" y1="0" x2="23.636363636363637" y2="178" fill="rgb(0, 0, 0)" stroke="rgb(153, 153, 153)" stroke-width="1.5px"></line></g></g><g><g><g><g><g><path stroke="rgb(51, 187, 238)" stroke-width="2px" d="M24.227272727272727,154.58325662348457L24.81818181818182,150.94429102474695L25.40909090909091,147.3053254260093L26,143.66635982727166L26.590909090909093,140.02739512792323L27.18181818181818,136.38842862979638L27.77272727272727,132.74946393044794L28.363636363636363,129.1104974323211L28.954545454545453,125.47153273297268L29.545454545454543,121.83256803362424L30.136363636363637,118.193599736719L30.727272727272727,114.55463503737056L31.318181818181817,110.91567033802211L31.90909090909091,107.27670563867368L32.5,103.63773734176843L33.090909090909086,99.99877264242L33.68181818181818,96.35980794307156L34.272727272727266,92.72084324372312L34.86363636363637,89.08187854437469L35.45454545454545,85.44291384502625L36.04545454545455,81.80394914567782L36.63636363636363,79.17153047886677L37.22727272727273,79.40391106412022L37.81818181818181,79.63628445426002L38.409090909090914,79.86866503951347L39,80.10104562476691L39.59090909090909,80.33342621002038L40.18181818181818,80.56580679527382L40.77272727272727,80.79818018541363L41.36363636363636,81.03056077066707L41.95454545454546,81.26294135592052L42.54545454545455,81.49532194117396L43.13636363636364,81.72769533131377L43.72727272727273,81.9600759165672L44.31818181818181,82.19245650182066L44.90909090909091,82.4248370870741L45.5,82.65721767232753L46.09090909090909,82.88959106246735L46.68181818181818,83.12197164772078L47.27272727272727,83.35435223297424L47.86363636363636,83.58673281822767L48.45454545454545,83.81911340348114L49.04545454545455,84.05148679362092L49.63636363636364,84.28386737887439L50.22727272727273,84.51624796412783L50.81818181818182,84.74862854938128L51.40909090909091,84.98100193952108L52,85.21338252477453L52.59090909090909,85.44576311002797L53.18181818181819,85.6781436952814L53.77272727272727,85.91052428053486L54.36363636363636,86.14289767067466L54.95454545454545,86.37527825592811L55.54545454545454,86.60765884118155L56.13636363636364,86.840039426435L56.72727272727273,87.0724128165748L57.31818181818182,87.30479340182825L57.90909090909091,87.53717398708169L58.5,87.76955457233515L59.090909090909086,88.00193515758859L59.68181818181819,88.2343085477284L60.27272727272727,88.46668913298184L60.86363636363637,88.6990697182353L61.45454545454545,88.93145030348873L62.04545454545455,89.16382369362853L62.63636363636363,89.39620427888198L63.227272727272734,89.62858486413542L63.81818181818182,89.86096544938887L64.4090909090909,90.09334603464232L65,90.32571942478212L65.5909090909091,90.55810001003557L66.18181818181817,90.79048059528901L66.77272727272728,91.02286118054246L67.36363636363636,91.2552417657959L67.95454545454545,91.48761515593571L68.54545454545453,91.71999574118915L69.13636363636364,91.9523763264426L69.72727272727273,92.18475691169604L70.31818181818181,92.41713030183585L70.9090909090909,92.64951088708929L71.5,92.88189147234274L72.0909090909091,93.11427205759618L72.68181818181819,93.34665264284963L73.27272727272727,93.57902603298943L73.86363636363637,93.81140661824288L74.45454545454545,94.04378720349634L75.04545454545455,94.27616778874977L75.63636363636363,94.50854117888959L76.22727272727272,94.74092176414302L76.81818181818183,94.97330234939646L77.4090909090909,95.20568293464991L78,95.43806351990337L78.59090909090908,95.67043691004316L79.18181818181819,95.90281749529662L79.77272727272728,96.13519808055005L80.36363636363636,96.3675786658035L80.95454545454545,96.5999520559433L81.54545454545455,96.83233264119676L82.13636363636364,97.0647132264502L82.72727272727272,97.29709381170365L83.31818181818181,97.5294743969571L83.90909090909092,97.7618477870969L84.5,97.99422837235035L85.0909090909091,98.22660895760379L85.68181818181817,98.45898594530041L86.27272727272728,98.69136653055385L86.86363636363637,98.9237471158073L87.45454545454545,99.15612410350393L88.04545454545455,99.38850468875738L88.63636363636363,99.620881676454L89.22727272727273,99.85326226170744L89.81818181818181,100.08563924940407L90.4090909090909,100.31801983465752L91,100.55040041991096L91.5909090909091,100.78277740760758L92.18181818181819,101.01515799286103L92.77272727272727,101.24753498055766L93.36363636363636,101.47991556581111L93.95454545454547,101.71229255350774L94.54545454545455,101.94467313876117L95.13636363636364,102.1770501264578L95.72727272727272,102.40943071171124L96.31818181818183,102.64181129696469L96.9090909090909,102.87418828466132L97.5,103.10656886991477L98.0909090909091,103.33894585761139L98.68181818181817,103.57132644286483L99.27272727272728,103.80370343056146L99.86363636363636,104.03608401581491L100.45454545454545,104.26846460106835L101.04545454545453,104.50084158876497L101.63636363636364,104.73322217401842L102.22727272727273,104.96559916171505L102.81818181818181,105.1979797469685L103.4090909090909,105.43035673466512L104,105.66273731991856L104.5909090909091,105.895117905172L105.18181818181819,106.12749489286863L105.77272727272727,106.35987547812208L106.36363636363637,106.5922524658187L106.95454545454545,106.82463305107215L107.54545454545455,107.05701003876878L108.13636363636363,107.28939062402222L108.72727272727272,107.52176761171884L109.31818181818183,107.7541481969723L109.9090909090909,107.98652878222573L110.5,108.21890576992236L111.09090909090908,108.45128635517581L111.68181818181819,108.68366334287244L112.27272727272728,108.91604392812589L112.86363636363636,109.14842091582251L113.45454545454545,109.38080150107595L114.04545454545455,109.61318208632939L114.63636363636364,109.84555907402601L115.22727272727272,110.07793965927947L115.81818181818181,110.31031664697609L116.40909090909092,110.54269723222954L117,110.77507421992617L117.5909090909091,111.0074548051796L118.18181818181817,111.23983179287623L118.77272727272728,111.47221237812968L119.36363636363637,111.70459296338312L119.95454545454545,111.93696995107975L120.54545454545455,112.1693505363332L121.13636363636363,112.40172752402982L121.72727272727273,112.63410810928328L122.31818181818181,112.8664850969799L122.9090909090909,113.09886568223334L123.5,113.33124626748678L124.0909090909091,113.5636232551834L124.68181818181819,113.79600384043685L125.27272727272727,114.02838082813348L125.86363636363636,114.26076141338692L126.45454545454547,114.49313840108354L127.04545454545455,114.725518986337L127.63636363636364,114.95789597403362L128.22727272727272,115.19027655928707L128.8181818181818,115.42265714454052L129.4090909090909,115.65503413223715L130,115.88741471749059L130.5909090909091,116.11979170518721L131.1818181818182,116.35217229044065L131.77272727272728,116.58454927813727L132.36363636363635,116.81692986339073L132.95454545454544,117.04931044864418L133.54545454545456,117.2816874363408L134.13636363636363,117.51406802159424L134.72727272727272,117.74644500929087L135.31818181818184,117.9788255945443L135.9090909090909,118.21120258224093L136.5,118.44358316749438L137.09090909090907,118.675960155191L137.6818181818182,118.90834074044446L138.27272727272728,119.14072132569791L138.86363636363635,119.37309831339454L139.45454545454547,119.60547889864797L140.04545454545456,119.8378558863446L140.63636363636363,120.07023647159804L141.22727272727275,120.30261345929466L141.8181818181818,120.53499404454811L142.4090909090909,120.76737462980157L143,120.99975161749819L143.5909090909091,121.23213220275163L144.1818181818182,121.46450919044825L144.77272727272725,121.69688977570169L145.36363636363637,121.92926676339832L145.95454545454547,122.16164734865177L146.54545454545453,122.3940243363484L147.13636363636363,122.62640492160185L147.72727272727275,122.8587855068553L148.3181818181818,123.09116249455192L148.9090909090909,123.32354307980536L149.5,123.55592006750199L150.0909090909091,123.78830065275542L150.6818181818182,124.02067764045205L151.27272727272725,124.2530582257055L151.86363636363637,124.48543881095895L152.45454545454544,124.71781579865558L153.04545454545453,124.95019638390902L153.63636363636365,125.18257337160564L154.22727272727272,125.41495395685908L154.8181818181818,125.6473309445557L155.40909090909093,125.87971152980916L156,126.11208851750578L156.5909090909091,126.34446910275923L157.18181818181816,126.57684968801269L157.77272727272728,126.80922667570931L158.36363636363637,127.04160726096275L158.95454545454544,127.27398424865937L159.54545454545456,127.50636483391281L160.13636363636365,127.73874182160944L160.72727272727272,127.97112240686289L161.3181818181818,128.20350119333793L161.9090909090909,128.43587997981297L162.5,128.668258766288L163.0909090909091,128.90063755276304L163.6818181818182,129.13301813801647L164.27272727272728,129.3653969244915L164.86363636363635,129.59777571096654L165.45454545454544,129.83015449744158L166.04545454545456,130.06253328391662L166.63636363636363,130.29491207039166L167.22727272727272,130.5272908568667L167.81818181818184,130.75966964334174L168.4090909090909,130.99205022859516L169,131.2244290150702L169.59090909090907,131.45680780154524L170.1818181818182,131.68918658802028L170.77272727272728,131.92156537449532L171.36363636363635,132.15394416097035L171.95454545454547,132.3863229474454L172.54545454545456,132.61870173392043L173.13636363636363,132.85108231917386L173.72727272727275,133.0834611056489L174.3181818181818,133.31583989212393L174.9090909090909,133.54821867859897L175.5,133.780597465074L176.0909090909091,134.01297625154905L176.6818181818182,134.24535503802406L177.27272727272725,134.47773382449913L177.86363636363637,134.71011440975255L178.45454545454547,134.9424931962276L179.04545454545453,135.17487198270263L179.63636363636363,135.40725076917767L180.22727272727275,135.6396295556527L180.8181818181818,135.87200834212774L181.4090909090909,136.10438712860275L182,136.33676591507782L182.5909090909091,136.56914650033124L183.1818181818182,136.80152528680628L183.77272727272725,137.03390407328132L184.36363636363637,137.26628285975636L184.95454545454544,137.4986616462314L185.54545454545453,137.73104043270644L186.13636363636365,137.96341921918145L186.72727272727272,138.1957980056565L187.3181818181818,138.42817859090994L187.90909090909093,138.66055737738498L188.5,138.89293616386L189.0909090909091,139.12531495033505L189.68181818181816,139.3576937368101L190.27272727272728,139.59007252328513L190.86363636363637,139.82245130976014L191.45454545454544,140.0548318950136L192.04545454545456,140.28721068148863L192.63636363636365,140.51958946796367L193.22727272727272,140.7519682544387L193.8181818181818,140.98434704091375L194.4090909090909,141.21672582738879L195,141.44910461386382L195.5909090909091,141.68148340033883L196.1818181818182,141.9138639855923L196.77272727272728,142.14624277206732L197.36363636363635,142.37862155854236L197.95454545454544,142.6110003450174L198.54545454545456,142.84337913149244L199.13636363636363,143.07575791796748L199.72727272727272,143.3081376038317L200.31818181818184,143.54051639030675L200.9090909090909,143.7728951767818L201.5,144.00527396325683L202.09090909090907,144.23765364912106L202.6818181818182,144.4700324355961L203.27272727272728,144.70241122207113L203.86363636363635,144.93479000854617L204.45454545454547,145.1671696944104L205.04545454545456,145.39954848088544L205.63636363636363,145.63192726736048L206.22727272727275,145.86430605383552L206.8181818181818,146.09668573969975L207.4090909090909,146.3290645261748L208,146.56144331264983L208.5909090909091,146.79382209912487L209.1818181818182,147.0262017849891L209.77272727272725,147.25858057146414L210.36363636363637,147.49095935793918L210.95454545454547,147.7233381444142L211.54545454545453,147.95571783027845L212.13636363636363,148.18809661675348L212.72727272727275,148.42047540322852L213.3181818181818,148.65285418970356L213.9090909090909,148.8852338755678L214.5,149.11761266204283L215.0909090909091,149.34999144851787L215.6818181818182,149.5823702349929L216.27272727272725,149.81474992085714L216.86363636363637,150.04712870733218L217.45454545454544,150.27950749380722L218.04545454545453,150.51188628028225L218.63636363636365,150.7442655164519L219.22727272727272,150.97664475262152L219.8181818181818,151.20902353909656L220.40909090909093,151.4414027752662L221,151.67378156174124L221.5909090909091,151.90616079791087L222.18181818181816,152.1385395843859L222.77272727272728,152.37091882055554L223.36363636363637,152.60329760703058L223.95454545454544,152.83567684320022L224.54545454545456,153.06805562967526L225.13636363636365,153.3004348658449L225.72727272727272,153.53281365231993L226.3181818181818,153.76519288848957L226.9090909090909,153.9975716749646L227.5,154.22995091113424L228.0909090909091,154.46232969760928L228.6818181818182,154.6947087089316L229.27272727272728,154.92708772025395L229.86363636363635,155.1594667315763L230.45454545454544,155.39184574289862L231.04545454545456,155.62422475422096L231.63636363636363,155.8566037655433L232.22727272727272,156.08898277686563L232.81818181818184,156.32136178818797L233.4090909090909,156.55374091193394L234,156.78611992325628L234.59090909090907,157.01849893457862L235.1818181818182,157.25087794590095L235.77272727272728,157.4832569572233L236.36363636363635,157.71563596854563L236.95454545454547,157.94801497986796L237.54545454545456,158.1803939982168" style="fill: none;" fill="none"></path></g><g><path stroke="rgb(204, 51, 17)" stroke-width="2px" d="M24.227272727272727,148.86365213220253L24.81818181818182,139.50508204218283L25.40909090909091,130.14651285155236L26,120.78794186214347L26.590909090909093,111.429372671513L27.18181818181818,102.07080348088252L27.77272727272727,92.71223069269521L28.363636363636363,83.35366150206474L28.954545454545453,73.99509231143425L29.545454545454543,64.63652312080376L30.136363636363637,55.27795393017328L30.727272727272727,45.91938473954281L31.318181818181817,39.746783088556384L31.90909090909091,40.34435886175683L32.5,40.94193463495728L33.090909090909086,41.539510408157696L33.68181818181818,42.13708618135814L34.272727272727266,42.73466195455856L34.86363636363637,43.33223772775901L35.45454545454545,43.929813500959455L36.04545454545455,44.52738927415987L36.63636363636363,45.12496504736029L37.22727272727273,45.72254082056074L37.81818181818181,46.320116593761185L38.409090909090914,46.9176923669616L39,47.51526814016205L39.59090909090909,48.11284391336247L40.18181818181818,48.710419686562915L40.77272727272727,49.30799545976333L41.36363636363636,49.90557123296378L41.95454545454546,50.50314700616421L42.54545454545455,51.100722779364645L43.13636363636364,51.69830574767872L43.72727272727273,52.29588152087916L44.31818181818181,52.893457294079596L44.90909090909091,53.49103306728003L45.5,54.08860884048045L46.09090909090909,54.68618461368088L46.68181818181818,55.283760386881326L47.27272727272727,55.88133616008176L47.86363636363636,56.47891193328219L48.45454545454545,57.076487706482624L49.04545454545455,57.67406347968307L49.63636363636364,58.2716392528835L50.22727272727273,58.869215026083936L50.81818181818182,59.466790799284354L51.40909090909091,60.064366572484786L52,60.66194234568523L52.59090909090909,61.259518118885666L53.18181818181819,61.8570938920861L53.77272727272727,62.45466966528653L54.36363636363636,63.05224543848698L54.95454545454545,63.64982840680105L55.54545454545454,64.24740418000147L56.13636363636364,64.8449799532019L56.72727272727273,65.44255572640235L57.31818181818182,66.04013149960278L57.90909090909091,66.63770727280321L58.5,67.23528304600364L59.090909090909086,67.83285881920409L59.68181818181819,68.43043459240452L60.27272727272727,69.02801036560496L60.86363636363637,69.62558613880537L61.45454545454545,70.2231619120058L62.04545454545455,70.82073768520625L62.63636363636363,71.41831345840669L63.227272727272734,72.01588923160712L63.81818181818182,72.61346500480755L64.4090909090909,73.211040778008L65,73.80861655120843L65.5909090909091,74.40619232440886L66.18181818181817,75.00376809760928L66.77272727272728,75.60134387080971L67.36363636363636,76.1989268391238L67.95454545454545,76.79650261232423L68.54545454545453,77.39407838552467L69.13636363636364,77.99165415872511L69.72727272727273,78.58922993192554L70.31818181818181,79.18680570512598L70.9090909090909,79.7843814783264L71.5,80.38195725152683L72.0909090909091,80.97953302472727L72.68181818181819,81.5771087979277L73.27272727272727,82.17468457112814L73.86363636363637,82.77226034432857L74.45454545454545,83.36983611752902L75.04545454545455,83.96741189072945L75.63636363636363,84.56498766392987L76.22727272727272,85.1625634371303L76.81818181818183,85.76013921033073L77.4090909090909,86.35771498353118L78,86.95529075673161L78.59090909090908,87.55286652993205L79.18181818181819,88.15044949824613L79.77272727272728,88.74802527144656L80.36363636363636,89.34560104464698L80.95454545454545,89.94317681784743L81.54545454545455,90.54075259104786L82.13636363636364,91.1383283642483L82.72727272727272,91.73590413744873L83.31818181818181,92.33347991064916L83.90909090909092,92.93105568384959L84.5,93.52863145705003L85.0909090909091,94.12620723025046L85.68181818181817,94.72378300345089L86.27272727272728,95.32135877665134L86.86363636363637,95.91893454985176L87.45454545454545,96.5165103230522L88.04545454545455,97.11408609625263L88.63636363636363,97.71166186945307L89.22727272727273,98.30924124021031L89.81818181818181,98.90681701341076L90.4090909090909,99.50439278661119L91,100.10196855981162L91.5909090909091,100.69954433301206L92.18181818181819,101.29712010621249L92.77272727272727,101.89469587941292L93.36363636363636,102.49227165261335L93.95454545454547,103.0898474258138L94.54545454545455,103.68742679657105L95.13636363636364,104.28500256977148L95.72727272727272,104.88257834297191L96.31818181818183,105.48015411617236L96.9090909090909,106.07772988937278L97.5,106.67530566257322L98.0909090909091,107.27288143577366L98.68181818181817,107.87045720897409L99.27272727272728,108.46803298217452L99.86363636363636,109.06560875537495L100.45454545454545,109.66318812613221L101.04545454545453,110.26076389933264L101.63636363636364,110.85833967253308L102.22727272727273,111.45591544573351L102.81818181818181,112.05349121893394L103.4090909090909,112.65106699213437L104,113.24864276533482L104.5909090909091,113.84621853853524L105.18181818181819,114.44379431173567L105.77272727272727,115.04137008493612L106.36363636363637,115.63894585813655L106.95454545454545,116.23652522889381L107.54545454545455,116.83410100209423L108.13636363636363,117.43167677529468L108.72727272727272,118.02925254849511L109.31818181818183,118.62682832169554L109.9090909090909,119.22440409489597L110.5,119.8219798680964L111.09090909090908,120.41955564129685L111.68181818181819,121.01713141449727L112.27272727272728,121.61470718769772L112.86363636363636,122.21228655845496L113.45454545454545,122.80986233165541L114.04545454545455,123.40743810485583L114.63636363636364,124.00501387805627L115.22727272727272,124.6025896512567L115.81818181818181,125.20016542445714L116.40909090909092,125.79774119765757L117,126.395316970858L117.5909090909091,126.99289274405844L118.18181818181817,127.59046851725887L118.77272727272728,128.18804608923773L119.36363636363637,128.78562186243815L119.95454545454545,129.3831976356386L120.54545454545455,129.98077520761743L121.13636363636363,130.57835098081787L121.72727272727273,131.1759267540183L122.31818181818181,131.77350252721874L122.9090909090909,132.37107830041916L123.5,132.96865587239802L124.0909090909091,133.56623164559844L124.68181818181819,134.16380741879888L125.27272727272727,134.7613831919993L125.86363636363636,135.35895896519975L126.45454545454547,135.95653653717858L127.04545454545455,136.55411231037903L127.63636363636364,137.15168808357947L128.22727272727272,137.7492638567799L128.8181818181818,138.3468396299803L129.4090909090909,138.94441720195917L130,139.5419929751596L130.5909090909091,140.13956874836003L131.1818181818182,140.73714452156048L131.77272727272728,141.3347202947609L132.36363636363635,141.93229786673976L132.95454545454544,142.52987363994018L133.54545454545456,143.12744941314062L134.13636363636363,143.72502518634104L134.72727272727272,144.32260185893068L135.31818181818184,144.92017763213113L135.9090909090909,145.51775340533158L136.5,146.11533007792121L137.09090909090907,146.71290585112163L137.6818181818182,147.31048252371127L138.27272727272728,147.9080582969117L138.86363636363635,148.50563407011214L139.45454545454547,149.10321074270178L140.04545454545456,149.70078651590222L140.63636363636363,150.29836318849186L141.22727272727275,150.89593896169228L141.8181818181818,151.49351518458732L142.4090909090909,152.09109140748237L143,152.68866718068278L143.5909090909091,153.28624340357783L144.1818181818182,153.88381962647287L144.77272727272725,154.4813956245206L145.36363636363637,155.07897184741563L145.95454545454547,155.67654784546338L146.54545454545453,156.27412406835842L147.13636363636363,156.8717001788298L147.72727272727275,157.46927628930118L148.3181818181818,158.06685242787847" style="fill: none;" fill="none"></path></g></g></g></g></g></g><g transform="translate(70, 178)" clip-path="url(#clip_1)"><clipPath id="clip_1"><rect width="260" height="22"></rect></clipPath><g><g><line x1="0" y1="0" x2="0" y2="5" style="visibility: inherit;" fill="rgb(0, 0, 0)" stroke="rgb(204, 204, 204)" stroke-width="1px"></line><line x1="23.636363636363637" y1="0" x2="23.636363636363637" y2="5" style="visibility: inherit;" fill="rgb(0, 0, 0)" stroke="rgb(204, 204, 204)" stroke-width="1px"></line><line x1="47.27272727272727" y1="0" x2="47.27272727272727" y2="5" style="visibility: inherit;" fill="rgb(0, 0, 0)" stroke="rgb(204, 204, 204)" stroke-width="1px"></line><line x1="70.9090909090909" y1="0" x2="70.9090909090909" y2="5" style="visibility: inherit;" fill="rgb(0, 0, 0)" stroke="rgb(204, 204, 204)" stroke-width="1px"></line><line x1="94.54545454545455" y1="0" x2="94.54545454545455" y2="5" style="visibility: inherit;" fill="rgb(0, 0, 0)" stroke="rgb(204, 204, 204)" stroke-width="1px"></line><line x1="118.18181818181817" y1="0" x2="118.18181818181817" y2="5" style="visibility: inherit;" fill="rgb(0, 0, 0)" stroke="rgb(204, 204, 204)" stroke-width="1px"></line><line x1="141.8181818181818" y1="0" x2="141.8181818181818" y2="5" style="visibility: inherit;" fill="rgb(0, 0, 0)" stroke="rgb(204, 204, 204)" stroke-width="1px"></line><line x1="165.45454545454544" y1="0" x2="165.45454545454544" y2="5" style="visibility: inherit;" fill="rgb(0, 0, 0)" stroke="rgb(204, 204, 204)" stroke-width="1px"></line><line x1="189.0909090909091" y1="0" x2="189.0909090909091" y2="5" style="visibility: inherit;" fill="rgb(0, 0, 0)" stroke="rgb(204, 204, 204)" stroke-width="1px"></line><line x1="212.72727272727275" y1="0" x2="212.72727272727275" y2="5" style="visibility: inherit;" fill="rgb(0, 0, 0)" stroke="rgb(204, 204, 204)" stroke-width="1px"></line><line x1="236.36363636363635" y1="0" x2="236.36363636363635" y2="5" style="visibility: inherit;" fill="rgb(0, 0, 0)" stroke="rgb(204, 204, 204)" stroke-width="1px"></line><line x1="260" y1="0" x2="260" y2="5" style="visibility: inherit;" fill="rgb(0, 0, 0)" stroke="rgb(204, 204, 204)" stroke-width="1px"></line></g><g transform="translate(0, 8)"><text x="0" y="0" dx="0em" dy="0.95em" style="text-anchor: middle; visibility: hidden; font-family: &quot;Helvetica Neue&quot;, sans-serif; font-size: 12px; font-weight: 200;" fill="rgb(50, 49, 63)" stroke="none" stroke-width="1px">-2k</text><text x="23.636363636363637" y="0" dx="0em" dy="0.95em" style="text-anchor: middle; visibility: inherit; font-family: &quot;Helvetica Neue&quot;, sans-serif; font-size: 12px; font-weight: 200;" fill="rgb(50, 49, 63)" stroke="none" stroke-width="1px">0</text><text x="47.27272727272727" y="0" dx="0em" dy="0.95em" style="text-anchor: middle; visibility: hidden; font-family: &quot;Helvetica Neue&quot;, sans-serif; font-size: 12px; font-weight: 200;" fill="rgb(50, 49, 63)" stroke="none" stroke-width="1px">2k</text><text x="70.9090909090909" y="0" dx="0em" dy="0.95em" style="text-anchor: middle; visibility: inherit; font-family: &quot;Helvetica Neue&quot;, sans-serif; font-size: 12px; font-weight: 200;" fill="rgb(50, 49, 63)" stroke="none" stroke-width="1px">4k</text><text x="94.54545454545455" y="0" dx="0em" dy="0.95em" style="text-anchor: middle; visibility: hidden; font-family: &quot;Helvetica Neue&quot;, sans-serif; font-size: 12px; font-weight: 200;" fill="rgb(50, 49, 63)" stroke="none" stroke-width="1px">6k</text><text x="118.18181818181817" y="0" dx="0em" dy="0.95em" style="text-anchor: middle; visibility: inherit; font-family: &quot;Helvetica Neue&quot;, sans-serif; font-size: 12px; font-weight: 200;" fill="rgb(50, 49, 63)" stroke="none" stroke-width="1px">8k</text><text x="141.8181818181818" y="0" dx="0em" dy="0.95em" style="text-anchor: middle; visibility: hidden; font-family: &quot;Helvetica Neue&quot;, sans-serif; font-size: 12px; font-weight: 200;" fill="rgb(50, 49, 63)" stroke="none" stroke-width="1px">10k</text><text x="165.45454545454544" y="0" dx="0em" dy="0.95em" style="text-anchor: middle; visibility: inherit; font-family: &quot;Helvetica Neue&quot;, sans-serif; font-size: 12px; font-weight: 200;" fill="rgb(50, 49, 63)" stroke="none" stroke-width="1px">12k</text><text x="189.0909090909091" y="0" dx="0em" dy="0.95em" style="text-anchor: middle; visibility: hidden; font-family: &quot;Helvetica Neue&quot;, sans-serif; font-size: 12px; font-weight: 200;" fill="rgb(50, 49, 63)" stroke="none" stroke-width="1px">14k</text><text x="212.72727272727275" y="0" dx="0em" dy="0.95em" style="text-anchor: middle; visibility: inherit; font-family: &quot;Helvetica Neue&quot;, sans-serif; font-size: 12px; font-weight: 200;" fill="rgb(50, 49, 63)" stroke="none" stroke-width="1px">16k</text><text x="236.36363636363635" y="0" dx="0em" dy="0.95em" style="text-anchor: middle; visibility: hidden; font-family: &quot;Helvetica Neue&quot;, sans-serif; font-size: 12px; font-weight: 200;" fill="rgb(50, 49, 63)" stroke="none" stroke-width="1px">18k</text><text x="260" y="0" dx="0em" dy="0.95em" style="text-anchor: middle; visibility: hidden; font-family: &quot;Helvetica Neue&quot;, sans-serif; font-size: 12px; font-weight: 200;" fill="rgb(50, 49, 63)" stroke="none" stroke-width="1px">20k</text></g><line x1="0" y1="0" x2="260" y2="0" fill="rgb(0, 0, 0)" stroke="rgb(204, 204, 204)" stroke-width="1px"></line></g></g></g></g></svg>